<?xml version="1.0" encoding="UTF-8"?>
<svg xmlns="http://www.w3.org/2000/svg" xmlns:xlink="http://www.w3.org/1999/xlink" viewBox="0 0 48 48" width="48px" height="48px">
<g id="surface62309687">
<path style=" stroke:none;fill-rule:nonzero;fill:rgb(11.764706%,53.333336%,89.803922%);fill-opacity:1;" d="M 10.832031 4.65625 L 25.871094 20.316406 C 26.265625 20.726562 26.917969 20.726562 27.3125 20.316406 L 30.359375 17.148438 C 30.8125 16.679688 30.707031 15.914062 30.140625 15.59375 C 22.273438 11.144531 12.523438 5.621094 10.832031 4.65625 Z M 6.28125 5.695312 C 6.109375 6.089844 6 6.527344 6 7.007812 L 6 41.183594 C 6 41.578125 6.089844 41.941406 6.21875 42.28125 L 23.152344 24.648438 C 23.523438 24.261719 23.523438 23.652344 23.152344 23.265625 Z M 34.886719 18.515625 C 34.671875 18.546875 34.464844 18.648438 34.308594 18.8125 L 30.03125 23.265625 C 29.660156 23.652344 29.660156 24.261719 30.03125 24.648438 L 34.269531 29.058594 C 34.585938 29.386719 35.09375 29.457031 35.488281 29.234375 C 38.453125 27.554688 40.453125 26.425781 40.453125 26.425781 C 41.449219 25.820312 42.015625 24.886719 42 23.871094 C 41.984375 22.878906 41.40625 21.964844 40.449219 21.421875 C 40.328125 21.355469 38.375 20.25 35.527344 18.636719 C 35.328125 18.523438 35.101562 18.484375 34.886719 18.515625 Z M 26.59375 27.289062 C 26.332031 27.289062 26.066406 27.394531 25.871094 27.597656 L 10.949219 43.132812 C 13.511719 41.675781 22.65625 36.5 30.101562 32.285156 C 30.667969 31.964844 30.773438 31.199219 30.320312 30.726562 L 27.3125 27.597656 C 27.117188 27.394531 26.855469 27.289062 26.59375 27.289062 Z M 26.59375 27.289062 "/>
</g>
</svg>
